<svg xmlns="http://www.w3.org/2000/svg" width="560" height="640" viewBox="0 0 560 640">

  <defs>
    <linearGradient id="panel" x1="0" y1="0" x2="0" y2="1">
      <stop offset="0%" stop-color="#151515"/>
      <stop offset="100%" stop-color="#111111"/>
    </linearGradient>
    <filter id="shadow" x="-20%" y="-20%" width="140%" height="140%">
      <feDropShadow dx="0" dy="10" stdDeviation="18" flood-color="#000000" flood-opacity="0.35"/>
    </filter>
  </defs>


  <rect x="0" y="0" width="560" height="640" rx="28" fill="#0e0e0e"/>
  <rect x="0" y="0" width="560" height="76" fill="#111111"/>
  <rect x="20" y="22" width="30" height="30" rx="9" fill="#182133"/>
  <rect x="30" y="30" width="4" height="14" rx="2" fill="#f8fafc"/>
  <rect x="30" y="40" width="12" height="4" rx="2" fill="#f8fafc"/>
  <text x="62" y="36" font-size="20" font-weight="700" fill="#e5e5e5" font-family="-apple-system,BlinkMacSystemFont,Segoe UI,sans-serif">Latch</text>
  <text x="62" y="54" font-size="12" fill="#666666" font-family="-apple-system,BlinkMacSystemFont,Segoe UI,sans-serif">Free, open-source macOS focus blocker</text>
  <rect x="0" y="76" width="560" height="46" fill="#1a1a1a"/>

  <text x="22" y="104" font-size="14" font-weight="400" fill="#666666" font-family="-apple-system,BlinkMacSystemFont,Segoe UI,sans-serif">Focus</text>
  <rect x="20" y="112" width="74" height="2" rx="1" fill="transparent"/>
  <text x="132" y="104" font-size="14" font-weight="600" fill="#e5e5e5" font-family="-apple-system,BlinkMacSystemFont,Segoe UI,sans-serif">Block List</text>
  <rect x="130" y="112" width="74" height="2" rx="1" fill="#3b82f6"/>
  <text x="242" y="104" font-size="14" font-weight="400" fill="#666666" font-family="-apple-system,BlinkMacSystemFont,Segoe UI,sans-serif">Setup</text>
  <rect x="240" y="112" width="74" height="2" rx="1" fill="transparent"/>
  <text x="20" y="160" font-size="18" font-weight="600" fill="#e5e5e5" font-family="-apple-system,BlinkMacSystemFont,Segoe UI,sans-serif">Block List</text>
  <rect x="20" y="188" width="388" height="42" rx="8" fill="#1a1a1a" stroke="#2c2c2c"/>
  <text x="34" y="214" font-size="14" fill="#666666" font-family="-apple-system,BlinkMacSystemFont,Segoe UI,sans-serif">reddit.com</text>
  <rect x="420" y="188" width="120" height="42" rx="8" fill="#2563eb"/>
  <text x="466" y="214" font-size="14" font-weight="600" fill="#ffffff" font-family="-apple-system,BlinkMacSystemFont,Segoe UI,sans-serif">Add</text>
  <rect x="20" y="258" width="520" height="46" rx="8" fill="#1a1a1a" stroke="#2c2c2c"/>
  <text x="36" y="286" font-size="14" fill="#e5e5e5" font-family="-apple-system,BlinkMacSystemFont,Segoe UI,sans-serif">reddit.com</text>
  <text x="516" y="286" font-size="20" fill="#666666" font-family="-apple-system,BlinkMacSystemFont,Segoe UI,sans-serif">×</text>
  <rect x="20" y="314" width="520" height="46" rx="8" fill="#1a1a1a" stroke="#2c2c2c"/>
  <text x="36" y="342" font-size="14" fill="#e5e5e5" font-family="-apple-system,BlinkMacSystemFont,Segoe UI,sans-serif">youtube.com</text>
  <text x="516" y="342" font-size="20" fill="#666666" font-family="-apple-system,BlinkMacSystemFont,Segoe UI,sans-serif">×</text>
  <rect x="20" y="370" width="520" height="46" rx="8" fill="#1a1a1a" stroke="#2c2c2c"/>
  <text x="36" y="398" font-size="14" fill="#e5e5e5" font-family="-apple-system,BlinkMacSystemFont,Segoe UI,sans-serif">x.com</text>
  <text x="516" y="398" font-size="20" fill="#666666" font-family="-apple-system,BlinkMacSystemFont,Segoe UI,sans-serif">×</text>
  <text x="20" y="448" font-size="12" fill="#555555" font-family="-apple-system,BlinkMacSystemFont,Segoe UI,sans-serif">3 sites blocked. Both domain.com and www.domain.com are blocked automatically.</text>
</svg>